HIERARCHY
ROOT Hips
{
	OFFSET -0.001795 -0.223333 0.028219
	CHANNELS 6 Xposition Yposition Zposition Zrotation Yrotation Xrotation
	JOINT LeftUpLeg
	{
		OFFSET 0.069520 -0.091406 -0.006815
		CHANNELS 3 Zrotation Yrotation Xrotation
		JOINT LeftLeg
		{
			OFFSET 0.034277 -0.375199 -0.004496
			CHANNELS 3 Zrotation Yrotation Xrotation
			JOINT LeftFoot
			{
				OFFSET -0.013596 -0.397961 -0.043693
				CHANNELS 3 Zrotation Yrotation Xrotation
				JOINT LeftToe
				{
					OFFSET 0.026358 -0.055791 0.119288
					CHANNELS 3 Zrotation Yrotation Xrotation
					End Site
					{
						OFFSET 0.000000 0.000000 0.000000
					}
				}
			}
		}
	}
	JOINT RightUpLeg
	{
		OFFSET -0.067670 -0.090522 -0.004320
		CHANNELS 3 Zrotation Yrotation Xrotation
		JOINT RightLeg
		{
			OFFSET -0.038290 -0.382569 -0.008850
			CHANNELS 3 Zrotation Yrotation Xrotation
			JOINT RightFoot
			{
				OFFSET 0.015774 -0.398415 -0.042312
				CHANNELS 3 Zrotation Yrotation Xrotation
				JOINT RightToe
				{
					OFFSET -0.025372 -0.048144 0.123348
					CHANNELS 3 Zrotation Yrotation Xrotation
					End Site
					{
						OFFSET 0.000000 0.000000 0.000000
					}
				}
			}
		}
	}
	JOINT Spine
	{
		OFFSET -0.002533 0.108963 -0.026696
		CHANNELS 3 Zrotation Yrotation Xrotation
		JOINT Spine1
		{
			OFFSET 0.005487 0.135180 0.001092
			CHANNELS 3 Zrotation Yrotation Xrotation
			JOINT Spine2
			{
				OFFSET 0.001457 0.052922 0.025425
				CHANNELS 3 Zrotation Yrotation Xrotation
				JOINT Neck
				{
					OFFSET -0.002778 0.213870 -0.042857
					CHANNELS 3 Zrotation Yrotation Xrotation
					JOINT Head
					{
						OFFSET 0.005152 0.064970 0.051349
						CHANNELS 3 Zrotation Yrotation Xrotation
						End Site
						{
							OFFSET 0.000000 0.000000 0.000000
						}
					}
				}
				JOINT LeftShoulder
				{
					OFFSET 0.078845 0.121749 -0.034090
					CHANNELS 3 Zrotation Yrotation Xrotation
					JOINT LeftArm
					{
						OFFSET 0.090977 0.030469 -0.008868
						CHANNELS 3 Zrotation Yrotation Xrotation
						JOINT LeftForeArm
						{
							OFFSET 0.259612 -0.012772 -0.027456
							CHANNELS 3 Zrotation Yrotation Xrotation
							JOINT LeftHand
							{
								OFFSET 0.249234 0.008986 -0.001171
								CHANNELS 3 Zrotation Yrotation Xrotation
								End Site
								{
									OFFSET 0.000000 0.000000 0.000000
								}
							}
						}
					}
				}
				JOINT RightShoulder
				{
					OFFSET -0.081759 0.118833 -0.038615
					CHANNELS 3 Zrotation Yrotation Xrotation
					JOINT RightArm
					{
						OFFSET -0.096012 0.032551 -0.009143
						CHANNELS 3 Zrotation Yrotation Xrotation
						JOINT RightForeArm
						{
							OFFSET -0.253742 -0.013329 -0.021401
							CHANNELS 3 Zrotation Yrotation Xrotation
							JOINT RightHand
							{
								OFFSET -0.255298 0.007772 -0.005559
								CHANNELS 3 Zrotation Yrotation Xrotation
								End Site
								{
									OFFSET 0.000000 0.000000 0.000000
								}
							}
						}
					}
				}
			}
		}
	}
}
MOTION
Frames: 5
Frame Time: 0.050000
0.000000 0.074921 0.000000 -7.268312 -8.611563 80.956375 6.268658 -1.313001 4.143119 -19.761820 4.900489 11.874191 4.130496 27.684164 -55.959350 0.000000 0.000000 0.000000 -7.564588 2.073938 -1.095277 17.677478 -2.415099 25.889217 -9.354508 -20.244507 -51.106937 0.000000 0.000000 0.000000 -1.373554 0.790542 34.349364 -1.255971 1.533170 -41.199185 -1.212615 5.341520 20.297008 7.408551 -1.166065 -24.891789 0.000000 0.000000 0.000000 -1.427177 4.459773 -2.324808 -13.652960 0.074773 -1.370399 147.459928 -40.848161 -87.488312 0.000000 0.000000 0.000000 3.609441 -7.318829 -4.087505 10.743100 -0.440176 -0.791512 -149.147040 53.047322 -109.479724 0.000000 0.000000 0.000000
-0.000854 0.067056 0.000549 -8.194873 -8.622811 82.824151 9.695542 -2.196409 3.158648 -21.016851 4.777735 8.879096 3.616839 21.399765 -56.529626 0.000000 0.000000 0.000000 -4.703475 1.621922 -5.807198 11.749045 -0.933560 32.731461 -9.588835 -16.540105 -45.401602 0.000000 0.000000 0.000000 -1.132059 0.644598 32.514547 -2.982244 1.554859 -41.823523 -0.288645 4.729367 18.946852 6.589452 -0.583026 -26.340313 0.000000 0.000000 0.000000 -6.352357 4.083021 -2.630477 -5.074923 0.832726 -0.398090 145.246760 -38.230448 -79.437282 0.000000 0.000000 0.000000 -0.506328 -10.755262 -4.886276 12.641814 1.211689 -1.011146 -162.007130 58.021778 -134.436694 0.000000 0.000000 0.000000
-0.001224 0.067468 0.001753 -5.832172 -10.065242 82.883844 7.774968 -1.681006 4.932215 -15.889796 3.614564 9.631885 3.733850 2.919785 -53.073679 0.000000 0.000000 0.000000 -7.755415 2.403847 -5.447309 13.410145 -1.466595 33.017831 -9.499419 -14.055618 -47.734782 0.000000 0.000000 0.000000 -1.274179 0.959186 34.445303 -2.332829 1.695446 -43.602177 -4.266571 3.878641 19.225841 9.918685 -1.166923 -29.677096 0.000000 0.000000 0.000000 0.000918 5.072875 -2.251247 -12.178755 0.446322 -1.163019 153.986201 -41.167379 -96.777849 0.000000 0.000000 0.000000 3.116295 -10.071505 -5.516531 9.071587 -0.381310 -0.657564 -167.075537 55.760926 -142.562860 0.000000 0.000000 0.000000
-0.002059 0.060658 0.003381 -5.643343 -10.513290 84.411872 9.427914 -2.180079 3.253364 -18.469817 4.259220 9.013301 3.295844 2.877300 -51.438578 0.000000 0.000000 0.000000 -7.342123 2.462222 -7.529825 12.694994 -1.293126 34.316976 -9.420646 -13.596337 -47.473281 0.000000 0.000000 0.000000 -0.325452 0.224343 31.478428 -5.004449 1.643424 -44.763259 -3.828372 2.453185 19.235366 8.646349 -1.284557 -24.725297 0.000000 0.000000 0.000000 -3.818725 4.270512 -2.029538 -7.080110 2.827315 -0.347496 153.033076 -38.004307 -90.368321 0.000000 0.000000 0.000000 6.064592 -9.997848 -6.480442 3.981239 -0.869931 -0.187320 -168.971786 54.077776 -145.531422 0.000000 0.000000 0.000000
-0.003023 0.064335 0.004887 -4.111405 -11.074803 84.286244 9.495826 -2.245207 4.361530 -20.406287 4.226877 7.082237 3.677387 5.846498 -55.993078 0.000000 0.000000 0.000000 -8.411079 2.756819 -7.046940 15.465984 -2.238209 34.044256 -9.133610 -15.948165 -51.285490 0.000000 0.000000 0.000000 0.050094 0.012948 31.809821 -6.462233 1.537548 -44.497950 -4.162392 0.399716 20.160195 9.446426 -1.677530 -23.248673 0.000000 0.000000 0.000000 -5.647106 5.192966 -2.373897 -6.383664 2.310216 -0.258533 156.489835 -38.857315 -97.300750 0.000000 0.000000 0.000000 6.751511 -10.239177 -7.246859 3.335036 -0.472831 -0.231683 -170.099287 53.619621 -148.153300 0.000000 0.000000 0.000000
